<svg width="25" height="25" viewBox="0 0 25 25" fill="none" xmlns="http://www.w3.org/2000/svg">
<g clip-path="url(#clip0_126_968)">
<mask id="mask0_126_968" style="mask-type:luminance" maskUnits="userSpaceOnUse" x="0" y="0" width="25" height="25">
<path d="M24.7451 0.820007H0.745117V24.82H24.7451V0.820007Z" fill="white"/>
</mask>
<g mask="url(#mask0_126_968)">
<path d="M14.245 7.32001C14.245 7.71783 14.087 8.09936 13.8056 8.38067C13.5243 8.66197 13.1428 8.82001 12.745 8.82001C12.3472 8.82001 11.9656 8.66197 11.6843 8.38067C11.403 8.09936 11.245 7.71783 11.245 7.32001C11.245 6.92218 11.403 6.54065 11.6843 6.25935C11.9656 5.97804 12.3472 5.82001 12.745 5.82001C13.1428 5.82001 13.5243 5.97804 13.8056 6.25935C14.087 6.54065 14.245 6.92218 14.245 7.32001ZM14.245 11.32C14.245 11.011 14.1495 10.7095 13.9716 10.4568C13.7937 10.204 13.5421 10.0124 13.2512 9.90814C12.9603 9.80384 12.6443 9.79195 12.3463 9.87408C12.0484 9.95622 11.7831 10.1284 11.5867 10.367C11.3972 10.5973 11.0112 10.8578 10.5427 11.0838C10.3132 11.1942 10.0776 11.2915 9.83699 11.3753L9.80149 11.387L9.79649 11.3885C9.4167 11.507 9.09953 11.7715 8.91476 12.1238C8.72999 12.4762 8.69275 12.8875 8.81124 13.2673C8.92972 13.647 9.19422 13.9642 9.54656 14.149C9.89889 14.3338 10.3102 14.371 10.69 14.2525L10.2485 12.8308C10.69 14.2525 10.6905 14.2525 10.6905 14.2525L10.6912 14.2523L10.6925 14.2518L10.6955 14.2508L10.7037 14.2483C10.7368 14.2378 10.7697 14.227 10.8025 14.2158C10.9516 14.165 11.0993 14.11 11.2452 14.0508V18.32C11.2452 18.7178 11.4033 19.0994 11.6846 19.3807C11.9659 19.662 12.3474 19.82 12.7452 19.82C13.1431 19.82 13.5246 19.662 13.8059 19.3807C14.0872 19.0994 14.2452 18.7178 14.2452 18.32L14.245 11.32Z" fill="#0023DD"/>
<path fill-rule="evenodd" clip-rule="evenodd" d="M12.7451 24.82C19.3726 24.82 24.7451 19.4475 24.7451 12.82C24.7451 6.19251 19.3726 0.820007 12.7451 0.820007C6.11762 0.820007 0.745117 6.19251 0.745117 12.82C0.745117 19.4475 6.11762 24.82 12.7451 24.82ZM12.7451 21.82C17.7156 21.82 21.7451 17.7905 21.7451 12.82C21.7451 7.84951 17.7156 3.82001 12.7451 3.82001C7.77462 3.82001 3.74512 7.84951 3.74512 12.82C3.74512 17.7905 7.77462 21.82 12.7451 21.82Z" fill="#0023DD"/>
</g>
</g>
<defs>
<clipPath id="clip0_126_968">
<rect width="24" height="24" fill="white" transform="translate(0.745117 0.820007)"/>
</clipPath>
</defs>
</svg>
