<svg width="15" height="15" viewBox="0 0 15 15" fill="none" xmlns="http://www.w3.org/2000/svg">
<path fill-rule="evenodd" clip-rule="evenodd" d="M13.4094 3.38508C13.4688 3.47521 13.4953 3.58307 13.4843 3.69044C13.4734 3.79782 13.4258 3.89814 13.3494 3.97445L7.60381 9.71945C7.54503 9.77819 7.47169 9.82026 7.39131 9.84133L4.99818 10.4663C4.91907 10.487 4.83595 10.4865 4.75705 10.4651C4.67816 10.4437 4.60623 10.402 4.54843 10.3442C4.49062 10.2864 4.44893 10.2145 4.42751 10.1356C4.40609 10.0567 4.40567 9.97356 4.42631 9.89445L5.05131 7.50195C5.06955 7.43013 5.10397 7.36343 5.15193 7.30695L10.9188 1.54383C11.0067 1.45604 11.1258 1.40674 11.2501 1.40674C11.3743 1.40674 11.4934 1.45604 11.5813 1.54383L13.3494 3.31133C13.3719 3.33383 13.392 3.35854 13.4094 3.38508ZM12.3551 3.64258L11.2501 2.5382L5.92631 7.86195L5.53568 9.35758L7.03131 8.96695L12.3551 3.64258Z" fill="black"/>
<path d="M12.2755 10.7251C12.4463 9.26502 12.5009 7.79372 12.4386 6.32505C12.4372 6.29045 12.443 6.25594 12.4556 6.22368C12.4682 6.19142 12.4873 6.1621 12.5117 6.13755L13.1267 5.52255C13.1435 5.50565 13.1649 5.49396 13.1881 5.48889C13.2114 5.48382 13.2357 5.48558 13.258 5.49397C13.2803 5.50235 13.2997 5.517 13.3139 5.53615C13.3281 5.5553 13.3365 5.57814 13.338 5.60193C13.4537 7.34645 13.4098 9.0979 13.2067 10.8344C13.0592 12.0982 12.0442 13.0888 10.7861 13.2294C8.60194 13.4713 6.39776 13.4713 4.2136 13.2294C2.9561 13.0888 1.94048 12.0982 1.79298 10.8344C1.53385 8.61906 1.53385 6.38104 1.79298 4.16568C1.94048 2.90193 2.95548 1.9113 4.2136 1.77068C5.87133 1.58685 7.54156 1.54232 9.20673 1.63755C9.23056 1.63926 9.2534 1.64777 9.27254 1.66206C9.29169 1.67635 9.30634 1.69583 9.31476 1.71819C9.32318 1.74055 9.32501 1.76485 9.32004 1.78822C9.31507 1.81159 9.30351 1.83305 9.28673 1.85005L8.6661 2.47005C8.64179 2.49427 8.61278 2.51325 8.58086 2.52583C8.54893 2.5384 8.51477 2.54431 8.48048 2.54318C7.09095 2.49594 5.69982 2.54921 4.31798 2.70255C3.91419 2.74724 3.53726 2.92675 3.24807 3.21208C2.95889 3.49741 2.77434 3.8719 2.72423 4.27505C2.47363 6.41775 2.47363 8.58235 2.72423 10.7251C2.77434 11.1282 2.95889 11.5027 3.24807 11.788C3.53726 12.0733 3.91419 12.2529 4.31798 12.2976C6.41485 12.5319 8.58485 12.5319 10.6824 12.2976C11.0861 12.2529 11.4631 12.0733 11.7523 11.788C12.0414 11.5027 12.2254 11.1282 12.2755 10.7251Z" fill="black"/>
</svg>
