<svg width="17" height="18" viewBox="0 0 17 18" fill="none" xmlns="http://www.w3.org/2000/svg">
<path d="M14 7C13.7348 7 13.4804 6.89464 13.2929 6.70711C13.1054 6.51957 13 6.26522 13 6C13 5.73478 13.1054 5.48043 13.2929 5.29289C13.4804 5.10536 13.7348 5 14 5C14.2652 5 14.5196 5.10536 14.7071 5.29289C14.8946 5.48043 15 5.73478 15 6C15 6.26522 14.8946 6.51957 14.7071 6.70711C14.5196 6.89464 14.2652 7 14 7ZM8 7H2V2H8M15.77 4.23L15.78 4.22L12.06 0.5L11 1.56L13.11 3.67C12.17 4 11.5 4.93 11.5 6C11.5 6.3283 11.5647 6.65339 11.6903 6.95671C11.8159 7.26002 12.0001 7.53562 12.2322 7.76777C12.7011 8.23661 13.337 8.5 14 8.5C14.36 8.5 14.69 8.42 15 8.29V15.5C15 15.7652 14.8946 16.0196 14.7071 16.2071C14.5196 16.3946 14.2652 16.5 14 16.5C13.7348 16.5 13.4804 16.3946 13.2929 16.2071C13.1054 16.0196 13 15.7652 13 15.5V11C13 10.4696 12.7893 9.96086 12.4142 9.58579C12.0391 9.21071 11.5304 9 11 9H10V2C10 1.46957 9.78929 0.960859 9.41421 0.585786C9.03914 0.210714 8.53043 0 8 0H2C0.89 0 0 0.89 0 2V18H10V10.5H11.5V15.5C11.5 16.163 11.7634 16.7989 12.2322 17.2678C12.7011 17.7366 13.337 18 14 18C14.3283 18 14.6534 17.9353 14.9567 17.8097C15.26 17.6841 15.5356 17.4999 15.7678 17.2678C15.9999 17.0356 16.1841 16.76 16.3097 16.4567C16.4353 16.1534 16.5 15.8283 16.5 15.5V6C16.5 5.31 16.22 4.68 15.77 4.23Z" fill="#C2C2C9"/>
</svg>
