<svg width="23" height="14" viewBox="0 0 23 14" fill="none" xmlns="http://www.w3.org/2000/svg">
<path fill-rule="evenodd" clip-rule="evenodd" d="M4.12562 6.80123L6.9575 9.63311C7.06342 9.73181 7.14838 9.85083 7.20731 9.98308C7.26624 10.1153 7.29792 10.2581 7.30048 10.4029C7.30303 10.5476 7.2764 10.6914 7.22218 10.8257C7.16795 10.9599 7.08724 11.0818 6.98487 11.1842C6.88249 11.2866 6.76054 11.3673 6.6263 11.4215C6.49205 11.4758 6.34826 11.5024 6.2035 11.4998C6.05874 11.4973 5.91598 11.4656 5.78373 11.4067C5.65148 11.3477 5.53245 11.2628 5.43375 11.1569L0.761875 6.48498L0 5.72311L0.761875 4.96123L5.43375 0.289357C5.63813 0.098917 5.90844 -0.00476009 6.18775 0.000167968C6.46706 0.00509603 6.73355 0.118245 6.93108 0.315776C7.12861 0.513307 7.24176 0.779798 7.24669 1.05911C7.25162 1.33841 7.14794 1.60873 6.9575 1.81311L4.12562 4.64498H18.3281C19.5672 4.64498 20.7555 5.1372 21.6316 6.01334C22.5078 6.88949 23 8.0778 23 9.31686C23 10.5559 22.5078 11.7442 21.6316 12.6204C20.7555 13.4965 19.5672 13.9887 18.3281 13.9887H15.4531C15.1672 13.9887 14.893 13.8751 14.6908 13.673C14.4886 13.4708 14.375 13.1965 14.375 12.9106C14.375 12.6247 14.4886 12.3504 14.6908 12.1483C14.893 11.9461 15.1672 11.8325 15.4531 11.8325H18.3281C18.9953 11.8325 19.6352 11.5674 20.1069 11.0957C20.5787 10.6239 20.8438 9.98404 20.8438 9.31686C20.8438 8.64967 20.5787 8.00981 20.1069 7.53804C19.6352 7.06627 18.9953 6.80123 18.3281 6.80123H4.12562Z" fill="#0023DD"/>
</svg>
