<svg width="15" height="15" viewBox="0 0 15 15" fill="none" xmlns="http://www.w3.org/2000/svg">
<g opacity="0.5" clip-path="url(#clip0_336_3831)">
<path fill-rule="evenodd" clip-rule="evenodd" d="M0.5 5.252C0.5 3.71931 1.73578 2.47681 3.26019 2.47681H6.77661C7.29867 2.47681 7.72187 2.90232 7.72187 3.42722C7.72187 3.95211 7.29867 4.37762 6.77661 4.37762H3.26019C2.7799 4.37762 2.39054 4.7691 2.39054 5.252V11.7148C2.39054 12.1977 2.7799 12.5891 3.26019 12.5891H9.68805C10.1683 12.5891 10.5577 12.1977 10.5577 11.7148V8.40734C10.5577 7.88248 10.9809 7.45696 11.503 7.45696C12.025 7.45696 12.4482 7.88248 12.4482 8.40734V11.7148C12.4482 13.2475 11.2124 14.49 9.68805 14.49H3.26019C1.73578 14.49 0.5 13.2475 0.5 11.7148V5.252Z" fill="#0023DD"/>
<path fill-rule="evenodd" clip-rule="evenodd" d="M8.21382 1.4504C8.21382 0.925512 8.63707 0.5 9.15914 0.5H13.5452C14.0672 0.5 14.4904 0.925512 14.4904 1.4504V5.70823C14.4904 6.23313 14.0672 6.65863 13.5452 6.65863C13.0231 6.65863 12.5999 6.23313 12.5999 5.70823V3.74489L7.40765 8.96541C7.03848 9.33655 6.43995 9.33655 6.07081 8.96541C5.70166 8.59421 5.70166 7.99246 6.07081 7.62132L11.2631 2.40082H9.15914C8.63707 2.40082 8.21382 1.9753 8.21382 1.4504Z" fill="#0023DD"/>
</g>
<defs>
<clipPath id="clip0_336_3831">
<rect width="13.99" height="13.99" fill="white" transform="translate(0.5 0.5)"/>
</clipPath>
</defs>
</svg>
