<svg width="16" height="17" viewBox="0 0 16 17" fill="none" xmlns="http://www.w3.org/2000/svg">
<mask id="mask0_43_202" style="mask-type:luminance" maskUnits="userSpaceOnUse" x="0" y="0" width="16" height="17">
<path d="M15.98 0.26001H0V16.24H15.98V0.26001Z" fill="white"/>
</mask>
<g mask="url(#mask0_43_202)">
<path fill-rule="evenodd" clip-rule="evenodd" d="M0 3.92209C0 1.89962 1.63961 0.26001 3.66208 0.26001C5.68455 0.26001 7.32417 1.89962 7.32417 3.92209C7.32417 5.94456 5.68455 7.58418 3.66208 7.58418C1.63961 7.58418 0 5.94456 0 3.92209ZM3.66208 5.58668C2.74273 5.58668 1.9975 4.84144 1.9975 3.92209C1.9975 3.00274 2.74273 2.25751 3.66208 2.25751C4.58143 2.25751 5.32667 3.00274 5.32667 3.92209C5.32667 4.84144 4.58143 5.58668 3.66208 5.58668ZM0 12.5779C0 10.5555 1.63961 8.91584 3.66208 8.91584C5.68455 8.91584 7.32417 10.5555 7.32417 12.5779C7.32417 14.6004 5.68455 16.24 3.66208 16.24C1.63961 16.24 0 14.6004 0 12.5779ZM3.66208 14.2425C2.74273 14.2425 1.9975 13.4973 1.9975 12.5779C1.9975 11.6586 2.74273 10.9133 3.66208 10.9133C4.58143 10.9133 5.32667 11.6586 5.32667 12.5779C5.32667 13.4973 4.58143 14.2425 3.66208 14.2425ZM12.3179 0.26001C10.2954 0.26001 8.65583 1.89962 8.65583 3.92209C8.65583 5.94456 10.2954 7.58418 12.3179 7.58418C14.3404 7.58418 15.98 5.94456 15.98 3.92209C15.98 1.89962 14.3404 0.26001 12.3179 0.26001ZM10.6533 3.92209C10.6533 4.84144 11.3986 5.58668 12.3179 5.58668C13.2373 5.58668 13.9825 4.84144 13.9825 3.92209C13.9825 3.00274 13.2373 2.25751 12.3179 2.25751C11.3986 2.25751 10.6533 3.00274 10.6533 3.92209ZM8.65583 12.5779C8.65583 10.5555 10.2954 8.91584 12.3179 8.91584C14.3404 8.91584 15.98 10.5555 15.98 12.5779C15.98 14.6004 14.3404 16.24 12.3179 16.24C10.2954 16.24 8.65583 14.6004 8.65583 12.5779ZM12.3179 14.2425C11.3986 14.2425 10.6533 13.4973 10.6533 12.5779C10.6533 11.6586 11.3986 10.9133 12.3179 10.9133C13.2373 10.9133 13.9825 11.6586 13.9825 12.5779C13.9825 13.4973 13.2373 14.2425 12.3179 14.2425Z" fill="#3D3D3D"/>
</g>
</svg>
