<svg width="18" height="18" viewBox="0 0 18 18" fill="none" xmlns="http://www.w3.org/2000/svg">
<path d="M5.71204 12.288L5.71209 12.2881C5.83399 12.41 5.99929 12.4784 6.17164 12.4784C6.344 12.4784 6.5093 12.41 6.63119 12.2881L6.63122 12.2881L9.00004 9.91925L11.3689 12.2881L11.3688 12.2881L11.372 12.2911C11.4946 12.4095 11.6587 12.475 11.8292 12.4736C11.9996 12.4721 12.1626 12.4037 12.2831 12.2832C12.4037 12.1627 12.472 11.9997 12.4735 11.8292C12.475 11.6588 12.4095 11.4946 12.2911 11.372L12.2911 11.372L12.288 11.3689L9.9192 9.0001L12.288 6.63127L12.288 6.6313L12.2911 6.62817C12.4095 6.50558 12.475 6.34139 12.4735 6.17096C12.472 6.00053 12.4037 5.83751 12.2831 5.71699C12.1626 5.59648 11.9996 5.52812 11.8292 5.52664C11.6587 5.52515 11.4946 5.59067 11.372 5.70907L11.3719 5.70905L11.3689 5.71212L9.00004 8.08094L6.63122 5.71212L6.63125 5.71209L6.62812 5.70907C6.50553 5.59067 6.34134 5.52515 6.17091 5.52664C6.00048 5.52812 5.83745 5.59648 5.71694 5.71699C5.59642 5.83751 5.52806 6.00053 5.52658 6.17096C5.5251 6.34139 5.59062 6.50558 5.70902 6.62817L5.70899 6.6282L5.71207 6.63127L8.08089 9.0001L5.71207 11.3689L5.71204 11.3689C5.59018 11.4908 5.52173 11.6561 5.52173 11.8285C5.52173 12.0009 5.59018 12.1662 5.71204 12.288Z" fill="#C52F1B" stroke="#C52F1B" stroke-width="0.5"/>
<path d="M9 17.25C13.5565 17.25 17.25 13.5565 17.25 9C17.25 4.44353 13.5565 0.75 9 0.75C4.44353 0.75 0.75 4.44353 0.75 9C0.75 13.5565 4.44353 17.25 9 17.25ZM15.95 9C15.95 12.8383 12.8383 15.95 9 15.95C5.16167 15.95 2.05 12.8383 2.05 9C2.05 5.16167 5.16167 2.05 9 2.05C12.8383 2.05 15.95 5.16167 15.95 9Z" fill="#C52F1B" stroke="#C52F1B" stroke-width="0.5"/>
</svg>
