<svg width="17" height="17" viewBox="0 0 17 17" fill="none" xmlns="http://www.w3.org/2000/svg">
<path fill-rule="evenodd" clip-rule="evenodd" d="M9.24888 2.7554C9.24888 2.49052 9.14365 2.23648 8.95635 2.04918C8.76905 1.86188 8.51501 1.75665 8.25013 1.75665C7.98524 1.75665 7.73121 1.86188 7.54391 2.04918C7.35661 2.23648 7.25138 2.49052 7.25138 2.7554V7.41624H2.59055C2.32566 7.41624 2.07163 7.52146 1.88432 7.70876C1.69702 7.89606 1.5918 8.1501 1.5918 8.41499C1.5918 8.67987 1.69702 8.93391 1.88432 9.12121C2.07163 9.30851 2.32566 9.41374 2.59055 9.41374H7.25138V14.0746C7.25138 14.3395 7.35661 14.5935 7.54391 14.7808C7.73121 14.9681 7.98524 15.0733 8.25013 15.0733C8.51501 15.0733 8.76905 14.9681 8.95635 14.7808C9.14365 14.5935 9.24888 14.3395 9.24888 14.0746V9.41374H13.9097C14.1746 9.41374 14.4286 9.30851 14.6159 9.12121C14.8032 8.93391 14.9085 8.67987 14.9085 8.41499C14.9085 8.1501 14.8032 7.89606 14.6159 7.70876C14.4286 7.52146 14.1746 7.41624 13.9097 7.41624H9.24888V2.7554Z" fill="white"/>
</svg>
