<svg width="45" height="45" viewBox="0 0 45 45" fill="none" xmlns="http://www.w3.org/2000/svg">
<rect x="0.0200195" y="0.970001" width="43.99" height="43.99" rx="21.995" fill="#0023DD"/>
<g clip-path="url(#clip0_126_930)">
<path fill-rule="evenodd" clip-rule="evenodd" d="M23.0152 15.915C23.0152 15.36 22.5652 14.91 22.0102 14.91C21.4552 14.91 21.0052 15.36 21.0052 15.915V21.945H14.9752C14.4202 21.945 13.9702 22.395 13.9702 22.95C13.9702 23.505 14.4202 23.955 14.9752 23.955H21.0052V29.985C21.0052 30.54 21.4552 30.99 22.0102 30.99C22.5652 30.99 23.0152 30.54 23.0152 29.985V23.955H29.0452C29.6002 23.955 30.0502 23.505 30.0502 22.95C30.0502 22.395 29.6002 21.945 29.0452 21.945H23.0152V15.915Z" fill="white"/>
</g>
<defs>
<clipPath id="clip0_126_930">
<rect width="16.08" height="16.08" fill="white" transform="translate(13.9702 14.91)"/>
</clipPath>
</defs>
</svg>
