<svg width="45" height="45" viewBox="0 0 45 45" fill="none" xmlns="http://www.w3.org/2000/svg">
<rect x="0.52002" y="0.48999" width="43.99" height="43.99" rx="21.995" fill="#9B9BA6"/>
<g clip-path="url(#clip0_226_52)">
<path fill-rule="evenodd" clip-rule="evenodd" d="M23.515 15.4349C23.515 14.8799 23.0651 14.4299 22.51 14.4299C21.955 14.4299 21.505 14.8799 21.505 15.4349V21.4649H15.475C14.92 21.4649 14.47 21.9149 14.47 22.4699C14.47 23.025 14.92 23.4749 15.475 23.4749H21.505V29.5049C21.505 30.06 21.955 30.5099 22.51 30.5099C23.0651 30.5099 23.515 30.06 23.515 29.5049V23.4749H29.545C30.1001 23.4749 30.55 23.025 30.55 22.4699C30.55 21.9149 30.1001 21.4649 29.545 21.4649H23.515V15.4349Z" fill="white"/>
</g>
<defs>
<clipPath id="clip0_226_52">
<rect width="16.08" height="16.08" fill="white" transform="translate(14.47 14.4299)"/>
</clipPath>
</defs>
</svg>
