<svg width="13" height="14" viewBox="0 0 13 14" fill="none" xmlns="http://www.w3.org/2000/svg">
<path d="M6.50105 8.58364C7.46759 8.58364 8.25112 7.80011 8.25112 6.83357C8.25112 5.86703 7.46759 5.0835 6.50105 5.0835C5.53451 5.0835 4.75098 5.86703 4.75098 6.83357C4.75098 7.80011 5.53451 8.58364 6.50105 8.58364Z" stroke="#0023DD" stroke-opacity="0.85" stroke-width="1.5"/>
<path d="M7.52963 1.08867C7.31553 1 7.04369 1 6.5 1C5.95631 1 5.68447 1 5.47037 1.08867C5.32872 1.14731 5.20002 1.23328 5.09161 1.34169C4.98321 1.45009 4.89723 1.5788 4.8386 1.72045C4.78493 1.85053 4.76335 2.00279 4.75518 2.22388C4.75154 2.38372 4.70734 2.54 4.62673 2.67807C4.54612 2.81613 4.43173 2.93144 4.29433 3.01317C4.15484 3.09136 3.99777 3.13281 3.83787 3.13363C3.67797 3.13445 3.52048 3.0946 3.38021 3.01783C3.1842 2.914 3.04244 2.85683 2.90185 2.83816C2.59519 2.79783 2.28507 2.88092 2.03965 3.06917C1.85648 3.21092 1.71997 3.44602 1.44813 3.91679C1.17628 4.38756 1.03978 4.62265 1.01002 4.85307C0.989978 5.00501 1.00006 5.15941 1.0397 5.30745C1.07934 5.45549 1.14775 5.59427 1.24103 5.71586C1.32737 5.82786 1.44813 5.92178 1.63538 6.03962C1.91131 6.21288 2.08865 6.50806 2.08865 6.83357C2.08865 7.15909 1.91131 7.45426 1.63538 7.62694C1.44813 7.74536 1.32679 7.83928 1.24103 7.95128C1.14775 8.07288 1.07934 8.21166 1.0397 8.3597C1.00006 8.50774 0.989978 8.66213 1.01002 8.81407C1.04036 9.04391 1.17628 9.27959 1.44754 9.75036C1.71997 10.2211 1.85589 10.4562 2.03965 10.598C2.16124 10.6913 2.30002 10.7597 2.44806 10.7993C2.5961 10.8389 2.7505 10.849 2.90244 10.829C3.04244 10.8103 3.1842 10.7531 3.38021 10.6493C3.52048 10.5725 3.67797 10.5327 3.83787 10.5335C3.99777 10.5343 4.15484 10.5758 4.29433 10.654C4.57609 10.8173 4.74351 11.1177 4.75518 11.4433C4.76335 11.6649 4.78435 11.8166 4.8386 11.9467C4.89723 12.0883 4.98321 12.2171 5.09161 12.3255C5.20002 12.4339 5.32872 12.5198 5.47037 12.5785C5.68447 12.6671 5.95631 12.6671 6.5 12.6671C7.04369 12.6671 7.31553 12.6671 7.52963 12.5785C7.67128 12.5198 7.79998 12.4339 7.90839 12.3255C8.01679 12.2171 8.10277 12.0883 8.1614 11.9467C8.21507 11.8166 8.23665 11.6649 8.24482 11.4433C8.25649 11.1177 8.42391 10.8167 8.70567 10.654C8.84516 10.5758 9.00223 10.5343 9.16213 10.5335C9.32204 10.5327 9.47952 10.5725 9.61979 10.6493C9.8158 10.7531 9.95756 10.8103 10.0976 10.829C10.2495 10.849 10.4039 10.8389 10.5519 10.7993C10.7 10.7597 10.8388 10.6913 10.9603 10.598C11.1441 10.4568 11.28 10.2211 11.5519 9.75036C11.8237 9.27959 11.9602 9.0445 11.99 8.81407C12.01 8.66213 11.9999 8.50774 11.9603 8.3597C11.9207 8.21166 11.8522 8.07288 11.759 7.95128C11.6726 7.83928 11.5519 7.74536 11.3646 7.62752C11.228 7.54446 11.1147 7.42801 11.0354 7.28913C10.9561 7.15024 10.9134 6.99348 10.9113 6.83357C10.9113 6.50806 11.0887 6.21288 11.3646 6.04021C11.5519 5.92179 11.6732 5.82786 11.759 5.71586C11.8522 5.59427 11.9207 5.45549 11.9603 5.30745C11.9999 5.15941 12.01 5.00501 11.99 4.85307C11.9596 4.62323 11.8237 4.38756 11.5525 3.91679C11.28 3.44602 11.1441 3.21092 10.9603 3.06917C10.8388 2.97588 10.7 2.90747 10.5519 2.86783C10.4039 2.82819 10.2495 2.81811 10.0976 2.83816C9.95756 2.85683 9.8158 2.914 9.61921 3.01783C9.47901 3.09449 9.32163 3.13428 9.16184 3.13347C9.00205 3.13265 8.84509 3.09126 8.70567 3.01317C8.56827 2.93144 8.45388 2.81613 8.37327 2.67807C8.29266 2.54 8.24846 2.38372 8.24482 2.22388C8.23665 2.00221 8.21565 1.85053 8.1614 1.72045C8.10277 1.5788 8.01679 1.45009 7.90839 1.34169C7.79998 1.23328 7.67128 1.14731 7.52963 1.08867Z" stroke="#0023DD" stroke-opacity="0.85" stroke-width="1.5"/>
</svg>
