<svg width="16" height="16" viewBox="0 0 16 16" fill="none" xmlns="http://www.w3.org/2000/svg">
<path d="M14.6667 0H1.33333C0.979711 0 0.640573 0.140476 0.390524 0.390524C0.140476 0.640573 0 0.979711 0 1.33333V14.6667C0 15.0203 0.140476 15.3594 0.390524 15.6095C0.640573 15.8595 0.979711 16 1.33333 16H14.6667C15.0203 16 15.3594 15.8595 15.6095 15.6095C15.8595 15.3594 16 15.0203 16 14.6667V1.33333C16 0.979711 15.8595 0.640573 15.6095 0.390524C15.3594 0.140476 15.0203 0 14.6667 0ZM12.4717 11.5283C12.5336 11.5903 12.5827 11.6638 12.6163 11.7447C12.6498 11.8257 12.667 11.9124 12.667 12C12.667 12.0876 12.6498 12.1743 12.6163 12.2553C12.5827 12.3362 12.5336 12.4097 12.4717 12.4717C12.4097 12.5336 12.3362 12.5827 12.2553 12.6163C12.1743 12.6498 12.0876 12.667 12 12.667C11.9124 12.667 11.8257 12.6498 11.7447 12.6163C11.6638 12.5827 11.5903 12.5336 11.5283 12.4717L8 8.9425L4.47167 12.4717C4.34657 12.5968 4.17691 12.667 4 12.667C3.82309 12.667 3.65343 12.5968 3.52833 12.4717C3.40324 12.3466 3.33296 12.1769 3.33296 12C3.33296 11.8231 3.40324 11.6534 3.52833 11.5283L7.0575 8L3.52833 4.47167C3.40324 4.34657 3.33296 4.17691 3.33296 4C3.33296 3.82309 3.40324 3.65343 3.52833 3.52833C3.65343 3.40324 3.82309 3.33296 4 3.33296C4.17691 3.33296 4.34657 3.40324 4.47167 3.52833L8 7.0575L11.5283 3.52833C11.6534 3.40324 11.8231 3.33296 12 3.33296C12.1769 3.33296 12.3466 3.40324 12.4717 3.52833C12.5968 3.65343 12.667 3.82309 12.667 4C12.667 4.17691 12.5968 4.34657 12.4717 4.47167L8.9425 8L12.4717 11.5283Z" fill="#BF5345"/>
</svg>
