<svg width="18" height="17" viewBox="0 0 18 17" fill="none" xmlns="http://www.w3.org/2000/svg">
<path d="M17.5591 13.2769L10.8323 1.59483C10.6375 1.26161 10.3588 0.985219 10.024 0.793142C9.68917 0.601065 9.3099 0.5 8.9239 0.5C8.5379 0.5 8.15863 0.601065 7.82382 0.793142C7.489 0.985219 7.21032 1.26161 7.01548 1.59483L0.288697 13.2769C0.099639 13.6002 0 13.9681 0 14.3426C0 14.7172 0.099639 15.085 0.288697 15.4084C0.481376 15.7433 0.759679 16.0208 1.09505 16.2127C1.43042 16.4045 1.81079 16.5036 2.19712 16.4999H15.6507C16.0368 16.5033 16.4168 16.4041 16.7519 16.2123C17.087 16.0205 17.365 15.743 17.5576 15.4084C17.7469 15.0852 17.8468 14.7174 17.847 14.3428C17.8473 13.9683 17.7479 13.6004 17.5591 13.2769ZM15.9591 14.4846C15.9279 14.5379 15.8827 14.5817 15.8286 14.6115C15.7744 14.6413 15.7132 14.6559 15.6515 14.6538H2.19712C2.13534 14.6559 2.07414 14.6413 2.01998 14.6115C1.96582 14.5817 1.92072 14.5379 1.88943 14.4846C1.8629 14.4414 1.84885 14.3918 1.84885 14.3411C1.84885 14.2904 1.8629 14.2408 1.88943 14.1976L8.61621 2.51558C8.64952 2.46431 8.69512 2.42217 8.74885 2.393C8.80259 2.36383 8.86276 2.34855 8.9239 2.34855C8.98504 2.34855 9.04521 2.36383 9.09895 2.393C9.15268 2.42217 9.19828 2.46431 9.23159 2.51558L15.9576 14.1976C15.9844 14.2406 15.9987 14.2902 15.999 14.3409C15.9992 14.3915 15.9854 14.4413 15.9591 14.4846ZM8.00084 9.42312V6.96164C8.00084 6.71683 8.09809 6.48204 8.2712 6.30894C8.44431 6.13583 8.67909 6.03858 8.9239 6.03858C9.16871 6.03858 9.40349 6.13583 9.5766 6.30894C9.74971 6.48204 9.84696 6.71683 9.84696 6.96164V9.42312C9.84696 9.66793 9.74971 9.90272 9.5766 10.0758C9.40349 10.2489 9.16871 10.3462 8.9239 10.3462C8.67909 10.3462 8.44431 10.2489 8.2712 10.0758C8.09809 9.90272 8.00084 9.66793 8.00084 9.42312ZM10.1546 12.5C10.1546 12.7434 10.0825 12.9814 9.94723 13.1837C9.81199 13.3861 9.61977 13.5439 9.39489 13.637C9.17 13.7302 8.92253 13.7546 8.68379 13.7071C8.44505 13.6596 8.22576 13.5424 8.05363 13.3702C7.88151 13.1981 7.76429 12.9788 7.7168 12.7401C7.66932 12.5013 7.69369 12.2539 7.78684 12.029C7.87999 11.8041 8.03774 11.6119 8.24014 11.4767C8.44253 11.3414 8.68048 11.2692 8.9239 11.2692C9.25031 11.2692 9.56336 11.3989 9.79417 11.6297C10.025 11.8605 10.1546 12.1736 10.1546 12.5Z" fill="#EEC443"/>
</svg>
