<svg width="50" height="50" viewBox="0 0 50 50" fill="none" xmlns="http://www.w3.org/2000/svg">
<g clip-path="url(#clip0_336_3630)">
<path d="M3.57185 16.0715C3.09825 16.0715 2.64404 15.8833 2.30916 15.5485C1.97427 15.2136 1.78613 14.7594 1.78613 14.2858V3.57148C1.78613 3.09788 1.97427 2.64368 2.30916 2.30879C2.64404 1.9739 3.09825 1.78577 3.57185 1.78577H46.429C46.9026 1.78577 47.3568 1.9739 47.6917 2.30879C48.0266 2.64368 48.2147 3.09788 48.2147 3.57148V14.2858C48.2147 14.7594 48.0266 15.2136 47.6917 15.5485C47.3568 15.8833 46.9026 16.0715 46.429 16.0715" stroke="black" stroke-linecap="round" stroke-linejoin="round"/>
<path d="M35.7143 10.7144H14.2857C13.2995 10.7144 12.5 11.5138 12.5 12.5001V37.5001C12.5 38.4863 13.2995 39.2858 14.2857 39.2858H35.7143C36.7005 39.2858 37.5 38.4863 37.5 37.5001V12.5001C37.5 11.5138 36.7005 10.7144 35.7143 10.7144Z" stroke="black" stroke-linecap="round" stroke-linejoin="round"/>
<path d="M12.5 48.2144H37.5" stroke="black" stroke-linecap="round" stroke-linejoin="round"/>
<path d="M25.0003 14.2858L17.8574 25.2614L25.0003 29.1812L32.1431 25.2614L25.0003 14.2858ZM17.8574 26.568L25.0003 35.7143L32.1431 26.568L25.0003 30.4879L17.8574 26.568Z" fill="black"/>
</g>
<defs>
<clipPath id="clip0_336_3630">
<rect width="50" height="50" fill="white"/>
</clipPath>
</defs>
</svg>
