<svg width="18" height="18" viewBox="0 0 18 18" fill="none" xmlns="http://www.w3.org/2000/svg">
<path d="M18 9C18 13.9706 13.9706 18 9 18C4.02944 18 0 13.9706 0 9C0 4.02944 4.02944 0 9 0C13.9706 0 18 4.02944 18 9ZM2.69124 9C2.69124 12.4842 5.51577 15.3088 9 15.3088C12.4842 15.3088 15.3088 12.4842 15.3088 9C15.3088 5.51577 12.4842 2.69124 9 2.69124C5.51577 2.69124 2.69124 5.51577 2.69124 9Z" fill="url(#paint0_angular_63_41)"/>
<circle cx="9.08999" cy="16.65" r="1.35" fill="#0023DD"/>
<defs>
<radialGradient id="paint0_angular_63_41" cx="0" cy="0" r="1" gradientUnits="userSpaceOnUse" gradientTransform="translate(9 9) rotate(90) scale(9)">
<stop stop-color="#0023DD"/>
<stop offset="0.175575" stop-color="#0023DD"/>
<stop offset="0.175675" stop-color="#0023DD"/>
<stop offset="0.348958" stop-color="#0023DD" stop-opacity="0.789788"/>
<stop offset="1" stop-color="white" stop-opacity="0"/>
</radialGradient>
</defs>
</svg>
